<svg width="11" height="10" viewBox="0 0 11 10" fill="none" xmlns="http://www.w3.org/2000/svg">
<path d="M10.3245 5.42447L6.72448 9.02447C6.61176 9.13719 6.45888 9.20055 6.29952 9.20055C6.14008 9.20055 5.9872 9.13719 5.87448 9.02447C5.76176 8.91175 5.69848 8.75887 5.69848 8.59951C5.69848 8.44007 5.76176 8.28719 5.87448 8.17447L8.45 5.59999H1.1C0.940872 5.59999 0.788256 5.53679 0.675736 5.42423C0.563216 5.31175 0.5 5.15911 0.5 4.99998C0.5 4.84086 0.563216 4.68824 0.675736 4.57572C0.788256 4.46319 0.940872 4.39998 1.1 4.39998H8.45L5.87552 1.82398C5.7628 1.71126 5.69944 1.55838 5.69944 1.39898C5.69944 1.23958 5.7628 1.0867 5.87552 0.973983C5.98824 0.861263 6.14112 0.797943 6.30048 0.797943C6.45992 0.797943 6.6128 0.861263 6.72552 0.973983L10.3255 4.57398C10.3814 4.6298 10.4258 4.69612 10.4561 4.76913C10.4863 4.84214 10.5018 4.92041 10.5018 4.99944C10.5016 5.07847 10.4859 5.15671 10.4555 5.22967C10.4251 5.30255 10.3806 5.36879 10.3245 5.42447Z" fill="white"/>
</svg>
